<svg width="426" height="149" viewBox="0 0 426 149" fill="none" xmlns="http://www.w3.org/2000/svg">
<path fill-rule="evenodd" clip-rule="evenodd" d="M4.01367 0.830246C2.65467 1.38225 1.19866 2.37523 0.779661 3.03523C0.359661 3.69523 0.00966907 35.7472 0.000669066 74.2622C-0.0123309 137.081 0.151661 144.527 1.59866 146.592L3.21066 148.895L42.3487 148.494C78.3777 148.124 82.0936 147.925 89.1396 145.979C104.575 141.718 113.713 134.827 119.034 123.436C125.962 108.605 124.778 85.8262 116.471 74.1432C106.233 59.7432 89.1527 54.8572 48.7357 54.7642L35.9857 54.7352V42.7352V30.7352H70.9857C113.535 30.7352 109.986 32.1283 109.986 15.4263C109.986 7.24025 109.594 3.58125 108.567 2.17625C107.199 0.304255 105.36 0.228258 56.8166 0.0302583C24.9186 -0.0997417 5.58067 0.193246 4.01367 0.830246ZM149.221 0.75325C147.976 1.26425 146.502 2.87924 145.945 4.34224C145.288 6.07024 145.03 31.3593 145.21 76.4503C145.481 144.569 145.524 145.925 147.486 147.386C150.585 149.692 224.855 148.806 233.486 146.359C242.725 143.74 251.383 139.332 256.433 134.677C272.937 119.464 273.068 82.8833 256.671 68.0703C246.685 59.0473 233.644 55.8913 202.793 55.0283L180.986 54.4193V42.5773V30.7352H215.763C245.621 30.7352 250.855 30.5152 252.763 29.1782C254.856 27.7132 254.986 26.8993 254.986 15.3013C254.986 5.06325 254.707 2.74825 253.333 1.60725C251.988 0.491254 242.347 0.197258 201.583 0.0302583C172.538 -0.0887417 150.534 0.21525 149.221 0.75325ZM291.858 2.38924C289.88 4.77224 289.81 144.958 291.786 146.935C292.826 147.975 306.301 148.235 359.286 148.235H425.486L425.737 135.735C426.076 118.815 425.8 118.324 415.71 117.943L407.986 117.651V60.3932C407.986 17.1922 407.691 2.84026 406.786 1.93526C405.961 1.11026 400.98 0.735245 390.857 0.735245C378.801 0.735245 375.844 1.02026 374.557 2.30626C373.165 3.69926 372.986 10.4322 372.986 61.3062V118.735H349.51H326.033L325.76 60.6982C325.522 10.4002 325.286 2.53524 323.986 1.71324C323.161 1.19224 315.904 0.75926 307.858 0.75026C295.46 0.73726 293.022 0.987237 291.858 2.38924ZM76.0737 85.8472C79.4787 86.5772 82.4756 88.0742 84.7986 90.2022C87.9476 93.0882 88.3786 94.0942 88.7166 99.3402C89.2346 107.397 87.0707 111.443 80.4857 114.732C75.7547 117.094 74.4217 117.248 55.7357 117.586L35.9857 117.944V101.339V84.7352H53.4366C63.0346 84.7352 73.2207 85.2362 76.0737 85.8472ZM226.165 87.4102C232.434 90.2902 234.33 93.9962 233.799 102.335C233.332 109.658 231.729 111.984 224.986 115.115C221.005 116.964 218.21 117.246 200.736 117.56L180.986 117.916V101.237V84.5573L201.236 84.9092C219.394 85.2242 221.969 85.4832 226.165 87.4102Z" fill="white"/>
<path fill-rule="evenodd" clip-rule="evenodd" d="M4.01367 0.830246C2.65467 1.38225 1.19866 2.37523 0.779661 3.03523C0.359661 3.69523 0.00966907 35.7472 0.000669066 74.2622C-0.0123309 137.081 0.151661 144.527 1.59866 146.592L3.21066 148.895L42.3487 148.494C78.3777 148.124 82.0936 147.925 89.1396 145.979C104.575 141.718 113.713 134.827 119.034 123.436C125.962 108.605 124.778 85.8262 116.471 74.1432C106.233 59.7432 89.1527 54.8572 48.7357 54.7642L35.9857 54.7352V42.7352V30.7352H70.9857C113.535 30.7352 109.986 32.1283 109.986 15.4263C109.986 7.24025 109.594 3.58125 108.567 2.17625C107.199 0.304255 105.36 0.228258 56.8166 0.0302583C24.9186 -0.0997417 5.58067 0.193246 4.01367 0.830246ZM149.221 0.75325C147.976 1.26425 146.502 2.87924 145.945 4.34224C145.288 6.07024 145.03 31.3593 145.21 76.4503C145.481 144.569 145.524 145.925 147.486 147.386C150.585 149.692 224.855 148.806 233.486 146.359C242.725 143.74 251.383 139.332 256.433 134.677C272.937 119.464 273.068 82.8833 256.671 68.0703C246.685 59.0473 233.644 55.8913 202.793 55.0283L180.986 54.4193V42.5773V30.7352H215.763C245.621 30.7352 250.855 30.5152 252.763 29.1782C254.856 27.7132 254.986 26.8993 254.986 15.3013C254.986 5.06325 254.707 2.74825 253.333 1.60725C251.988 0.491254 242.347 0.197258 201.583 0.0302583C172.538 -0.0887417 150.534 0.21525 149.221 0.75325ZM291.858 2.38924C289.88 4.77224 289.81 144.958 291.786 146.935C292.826 147.975 306.301 148.235 359.286 148.235H425.486L425.737 135.735C426.076 118.815 425.8 118.324 415.71 117.943L407.986 117.651V60.3932C407.986 17.1922 407.691 2.84026 406.786 1.93526C405.961 1.11026 400.98 0.735245 390.857 0.735245C378.801 0.735245 375.844 1.02026 374.557 2.30626C373.165 3.69926 372.986 10.4322 372.986 61.3062V118.735H349.51H326.033L325.76 60.6982C325.522 10.4002 325.286 2.53524 323.986 1.71324C323.161 1.19224 315.904 0.75926 307.858 0.75026C295.46 0.73726 293.022 0.987237 291.858 2.38924ZM76.0737 85.8472C79.4787 86.5772 82.4756 88.0742 84.7986 90.2022C87.9476 93.0882 88.3786 94.0942 88.7166 99.3402C89.2346 107.397 87.0707 111.443 80.4857 114.732C75.7547 117.094 74.4217 117.248 55.7357 117.586L35.9857 117.944V101.339V84.7352H53.4366C63.0346 84.7352 73.2207 85.2362 76.0737 85.8472ZM226.165 87.4102C232.434 90.2902 234.33 93.9962 233.799 102.335C233.332 109.658 231.729 111.984 224.986 115.115C221.005 116.964 218.21 117.246 200.736 117.56L180.986 117.916V101.237V84.5573L201.236 84.9092C219.394 85.2242 221.969 85.4832 226.165 87.4102Z" fill="white"/>
</svg>
