<svg width="655" height="754" viewBox="0 0 655 754" fill="none" xmlns="http://www.w3.org/2000/svg">
<path fill-rule="evenodd" clip-rule="evenodd" d="M233.014 263.83C231.655 264.382 230.199 265.375 229.78 266.035C229.36 266.695 229.01 298.747 229.001 337.262C228.988 400.081 229.152 407.527 230.599 409.592L232.211 411.895L271.349 411.494C307.378 411.124 311.094 410.925 318.14 408.979C333.575 404.718 342.713 397.827 348.034 386.436C354.962 371.605 353.778 348.826 345.471 337.143C335.233 322.743 318.153 317.857 277.736 317.764L264.986 317.735V305.735V293.735H299.986C342.535 293.735 338.986 295.128 338.986 278.426C338.986 270.24 338.594 266.581 337.567 265.176C336.199 263.304 334.36 263.228 285.817 263.03C253.919 262.9 234.581 263.193 233.014 263.83ZM378.221 263.753C376.976 264.264 375.502 265.879 374.945 267.342C374.288 269.07 374.03 294.359 374.21 339.45C374.481 407.569 374.524 408.925 376.486 410.386C379.585 412.692 453.855 411.806 462.486 409.359C471.725 406.74 480.383 402.332 485.433 397.677C501.937 382.464 502.068 345.883 485.671 331.07C475.685 322.047 462.644 318.891 431.793 318.028L409.986 317.419V305.577V293.735H444.763C474.621 293.735 479.855 293.515 481.763 292.178C483.856 290.713 483.986 289.899 483.986 278.301C483.986 268.063 483.707 265.748 482.333 264.607C480.988 263.491 471.347 263.197 430.583 263.03C401.538 262.911 379.534 263.215 378.221 263.753ZM520.858 265.389C518.88 267.772 518.81 407.958 520.786 409.935C521.826 410.975 535.301 411.235 588.286 411.235H654.486L654.737 398.735C655.076 381.815 654.8 381.324 644.71 380.943L636.986 380.651V323.393C636.986 280.192 636.691 265.84 635.786 264.935C634.961 264.11 629.98 263.735 619.857 263.735C607.801 263.735 604.844 264.02 603.557 265.306C602.165 266.699 601.986 273.432 601.986 324.306V381.735H578.51H555.033L554.76 323.698C554.522 273.4 554.286 265.535 552.986 264.713C552.161 264.192 544.904 263.759 536.858 263.75C524.46 263.737 522.022 263.987 520.858 265.389ZM305.074 348.847C308.479 349.577 311.476 351.074 313.799 353.202C316.948 356.088 317.379 357.094 317.717 362.34C318.235 370.397 316.071 374.443 309.486 377.732C304.755 380.094 303.422 380.248 284.736 380.586L264.986 380.944V364.339V347.735H282.437C292.035 347.735 302.221 348.236 305.074 348.847ZM455.165 350.41C461.434 353.29 463.33 356.996 462.799 365.335C462.332 372.658 460.729 374.984 453.986 378.115C450.005 379.964 447.21 380.246 429.736 380.56L409.986 380.916V364.237V347.557L430.236 347.909C448.394 348.224 450.969 348.483 455.165 350.41Z" fill="black"/>
<path fill-rule="evenodd" clip-rule="evenodd" d="M233.014 263.83C231.655 264.382 230.199 265.375 229.78 266.035C229.36 266.695 229.01 298.747 229.001 337.262C228.988 400.081 229.152 407.527 230.599 409.592L232.211 411.895L271.349 411.494C307.378 411.124 311.094 410.925 318.14 408.979C333.575 404.718 342.713 397.827 348.034 386.436C354.962 371.605 353.778 348.826 345.471 337.143C335.233 322.743 318.153 317.857 277.736 317.764L264.986 317.735V305.735V293.735H299.986C342.535 293.735 338.986 295.128 338.986 278.426C338.986 270.24 338.594 266.581 337.567 265.176C336.199 263.304 334.36 263.228 285.817 263.03C253.919 262.9 234.581 263.193 233.014 263.83ZM378.221 263.753C376.976 264.264 375.502 265.879 374.945 267.342C374.288 269.07 374.03 294.359 374.21 339.45C374.481 407.569 374.524 408.925 376.486 410.386C379.585 412.692 453.855 411.806 462.486 409.359C471.725 406.74 480.383 402.332 485.433 397.677C501.937 382.464 502.068 345.883 485.671 331.07C475.685 322.047 462.644 318.891 431.793 318.028L409.986 317.419V305.577V293.735H444.763C474.621 293.735 479.855 293.515 481.763 292.178C483.856 290.713 483.986 289.899 483.986 278.301C483.986 268.063 483.707 265.748 482.333 264.607C480.988 263.491 471.347 263.197 430.583 263.03C401.538 262.911 379.534 263.215 378.221 263.753ZM520.858 265.389C518.88 267.772 518.81 407.958 520.786 409.935C521.826 410.975 535.301 411.235 588.286 411.235H654.486L654.737 398.735C655.076 381.815 654.8 381.324 644.71 380.943L636.986 380.651V323.393C636.986 280.192 636.691 265.84 635.786 264.935C634.961 264.11 629.98 263.735 619.857 263.735C607.801 263.735 604.844 264.02 603.557 265.306C602.165 266.699 601.986 273.432 601.986 324.306V381.735H578.51H555.033L554.76 323.698C554.522 273.4 554.286 265.535 552.986 264.713C552.161 264.192 544.904 263.759 536.858 263.75C524.46 263.737 522.022 263.987 520.858 265.389ZM305.074 348.847C308.479 349.577 311.476 351.074 313.799 353.202C316.948 356.088 317.379 357.094 317.717 362.34C318.235 370.397 316.071 374.443 309.486 377.732C304.755 380.094 303.422 380.248 284.736 380.586L264.986 380.944V364.339V347.735H282.437C292.035 347.735 302.221 348.236 305.074 348.847ZM455.165 350.41C461.434 353.29 463.33 356.996 462.799 365.335C462.332 372.658 460.729 374.984 453.986 378.115C450.005 379.964 447.21 380.246 429.736 380.56L409.986 380.916V364.237V347.557L430.236 347.909C448.394 348.224 450.969 348.483 455.165 350.41Z" fill="black"/>
<path fill-rule="evenodd" clip-rule="evenodd" d="M196 99V198H98H0V277.5V357H97.5H195V341V325H113H31V277V229H292H553V213.5V198H454.5H356V99V0H276H196V99ZM323.5 114.5V197.5L275.75 197.76L228 198.019V114.5V30.981L275.75 31.24L323.5 31.5V114.5ZM196 607V754H276H356V607V460H340H324V490.5V521H276H228V490.5V460H212H196V607ZM324 637V721H276H228V637V553H276H324V637Z" fill="#3D231F"/>
</svg>
